<?xml version="1.0" standalone="no"?>
<!DOCTYPE svg PUBLIC "-//W3C//DTD SVG 20010904//EN"
 "http://www.w3.org/TR/2001/REC-SVG-20010904/DTD/svg10.dtd">
<svg version="1.0" xmlns="http://www.w3.org/2000/svg"
 width="232.000000pt" height="217.000000pt" viewBox="0 0 232.000000 217.000000"
 preserveAspectRatio="xMidYMid meet">

<g transform="translate(0.000000,217.000000) scale(0.100000,-0.100000)"
fill="#FFFFFF" stroke="none">
<path d="M1007 2140 c-34 -27 -44 -78 -23 -118 8 -16 22 -32 31 -35 12 -5 15
-25 15 -102 0 -52 3 -95 6 -95 3 0 19 8 35 17 28 17 29 20 29 95 0 62 3 80 15
85 26 9 47 62 41 99 -13 66 -95 96 -149 54z"/>
<path d="M1525 2125 l-33 -34 -119 -3 -118 -3 -3 -135 -3 -135 31 -18 30 -18
0 125 0 126 100 0 c78 0 102 -3 106 -14 8 -22 66 -45 96 -39 71 14 99 112 45
159 -43 37 -91 33 -132 -11z"/>
<path d="M645 1953 c-56 -14 -87 -81 -61 -132 20 -37 44 -51 88 -51 33 0 78
29 78 50 0 6 23 10 50 10 l50 0 0 -64 0 -65 30 11 31 10 -3 82 -3 81 -73 3
c-63 3 -74 6 -88 27 -12 18 -71 51 -78 44 -1 -1 -10 -3 -21 -6z"/>
<path d="M1590 1870 c-24 -26 -35 -30 -78 -30 -77 0 -82 -4 -82 -65 0 -50 2
-54 29 -63 29 -10 30 -10 33 26 3 32 7 37 32 40 21 3 37 -5 63 -29 27 -27 42
-34 74 -34 83 0 120 96 60 156 -41 41 -92 40 -131 -1z"/>
<path d="M1095 1660 c-114 -76 -290 -129 -432 -130 l-63 0 0 -94 c0 -362 116
-665 319 -833 65 -54 208 -133 240 -133 26 0 140 58 206 105 163 116 271 288
325 519 23 95 43 328 34 384 l-6 39 -75 7 c-131 11 -265 57 -411 140 -35 20
-67 36 -70 36 -4 0 -34 -18 -67 -40z m156 -230 c56 -29 99 -99 99 -162 0 -41
3 -48 20 -48 34 0 40 -32 40 -203 0 -127 -3 -167 -14 -176 -9 -8 -82 -11 -242
-9 l-229 3 0 185 c0 182 0 185 23 195 16 7 22 18 22 43 0 65 42 134 105 173
41 26 124 25 176 -1z"/>
<path d="M1092 1370 c-36 -22 -62 -72 -62 -120 l0 -30 131 0 132 0 -5 52 c-5
44 -11 57 -42 85 -43 40 -101 45 -154 13z"/>
<path d="M1116 1098 c-21 -30 -20 -51 3 -72 18 -16 18 -20 5 -51 -21 -52 -19
-55 41 -55 l54 0 -14 41 c-13 36 -13 44 0 62 20 29 19 60 -3 80 -26 24 -68 21
-86 -5z"/>
<path d="M303 1615 c-50 -35 -50 -117 1 -150 22 -15 25 -25 28 -83 l3 -67 63
-3 62 -3 0 31 c0 28 -3 30 -35 30 -33 0 -35 2 -35 36 0 26 8 43 30 66 22 21
30 39 30 65 0 71 -89 119 -147 78z"/>
<path d="M1896 1599 c-37 -43 -35 -92 4 -129 23 -21 30 -37 30 -64 0 -33 -2
-36 -30 -36 -27 0 -30 -3 -30 -30 l0 -31 58 3 57 3 3 65 c3 58 6 67 35 91 26
22 32 33 32 69 0 55 -37 90 -95 90 -30 0 -43 -6 -64 -31z"/>
<path d="M43 1551 c-22 -14 -34 -31 -38 -54 -8 -41 15 -92 45 -102 19 -6 20
-15 20 -124 0 -78 4 -121 12 -129 9 -9 70 -12 211 -12 l199 0 -6 23 c-3 12 -6
28 -6 35 0 9 -42 12 -175 12 l-175 0 0 92 c0 89 1 93 28 114 22 18 27 30 27
68 0 79 -74 120 -142 77z"/>
<path d="M2182 1560 c-30 -12 -57 -70 -48 -105 4 -15 18 -37 31 -49 23 -22 25
-30 25 -115 l0 -91 -170 0 c-129 0 -170 -3 -170 -12 0 -7 -3 -23 -6 -35 l-6
-23 194 0 c138 0 197 3 206 12 8 8 12 51 12 129 0 109 1 118 20 124 30 9 53
61 46 101 -12 59 -73 88 -134 64z"/>
<path d="M52 1030 c-28 -12 -55 -73 -46 -103 10 -33 43 -65 75 -72 32 -7 83
16 99 45 10 19 21 20 190 20 99 0 180 2 180 4 0 3 -4 16 -10 30 l-10 26 -169
0 -169 0 -30 30 c-32 31 -66 37 -110 20z"/>
<path d="M2158 1010 l-30 -30 -164 0 -164 0 -10 -26 c-6 -14 -10 -27 -10 -30
0 -2 79 -4 175 -4 164 0 175 -1 185 -20 16 -29 67 -53 99 -45 113 28 93 185
-24 185 -16 0 -38 -12 -57 -30z"/>
<path d="M288 789 c-14 -8 -18 -24 -18 -76 0 -58 -3 -69 -30 -100 -33 -37 -38
-69 -15 -112 43 -84 170 -45 170 51 0 34 -6 45 -33 68 -27 22 -32 33 -32 68
l0 41 155 3 155 3 -20 33 -20 32 -147 0 c-82 0 -156 -5 -165 -11z"/>
<path d="M1710 768 l-20 -33 150 -3 150 -3 0 -41 c0 -35 -5 -46 -32 -68 -81
-68 -6 -193 94 -158 32 11 58 53 58 92 0 14 -13 41 -30 59 -27 31 -30 42 -30
100 0 55 -3 68 -19 77 -11 5 -83 10 -160 10 l-141 0 -20 -32z"/>
<path d="M1457 470 c-26 -20 -28 -27 -25 -79 l3 -56 64 -3 c56 -3 67 -7 91
-33 39 -40 90 -40 131 0 56 57 27 145 -53 158 -33 5 -41 2 -74 -31 -27 -27
-44 -36 -69 -36 -34 0 -34 0 -37 51 l-3 51 -28 -22z"/>
<path d="M850 410 l0 -70 -50 0 c-27 0 -50 4 -50 10 0 5 -10 18 -22 30 -31 28
-89 27 -125 -4 -55 -47 -24 -151 47 -156 49 -4 61 0 88 29 24 27 34 30 97 33
l70 3 3 75 c3 74 2 76 -28 98 l-30 23 0 -71z"/>
<path d="M1277 354 l-28 -15 3 -127 3 -127 118 -3 119 -3 33 -34 c41 -44 89
-48 132 -11 54 46 26 145 -44 159 -35 6 -81 -10 -94 -34 -8 -17 -22 -19 -109
-19 l-99 0 -3 114 -3 114 -28 -14z"/>
<path d="M1030 274 c0 -67 -3 -86 -15 -91 -21 -7 -45 -56 -45 -88 0 -39 50
-85 93 -85 71 0 116 74 83 138 -8 16 -22 32 -30 35 -11 4 -16 25 -18 77 -3 70
-4 72 -35 85 l-33 14 0 -85z"/>
</g>
</svg>
